# xmcd
#
# Track frame offsets:
# 151
# 14768
# 28367
# 37862
# 53621
# 65995
# 81702
# 101036
# 125576
# 142204
# 154970
# 172852
# 183869
# 201776
# 217394
# 229925
#
# Disc length: 3378 seconds
#
#
# Revision: 0
# Processed by: cddbd v1.5.1PL2 Copyright (c) Steve Scherf et al.
# Submitted via: Nero 7, 2, 0, 3 
#
DISCID=f90d3010
DTITLE=Dave Ray - Shades Of Love
DYEAR=2006
DGENRE=Country
TTITLE0=Shades Of Love
TTITLE1=Shades Of Love
TTITLE2=Shades Of Love
TTITLE3=Shades Of Love
TTITLE4=Shades Of Love
TTITLE5=Shades Of Love
TTITLE6=Shades Of Love
TTITLE7=Shades Of Love
TTITLE8=Shades Of Love
TTITLE9=Shades Of Love
TTITLE10=Shades Of Love
TTITLE11=Shades Of Love
TTITLE12=Shades Of Love
TTITLE13=Shades Of Love
TTITLE14=Shades Of Love
TTITLE15=Shades Of Love
EXTD=
EXTT0=
EXTT1=
EXTT2=
EXTT3=
EXTT4=
EXTT5=
EXTT6=
EXTT7=
EXTT8=
EXTT9=
EXTT10=
EXTT11=
EXTT12=
EXTT13=
EXTT14=
EXTT15=
PLAYORDER=
